<?xml version="1.0" standalone="no"?>
<!DOCTYPE svg PUBLIC "-//W3C//DTD SVG 20010904//EN"
 "http://www.w3.org/TR/2001/REC-SVG-20010904/DTD/svg10.dtd">
<svg version="1.0" xmlns="http://www.w3.org/2000/svg"
 width="1024.000000pt" height="1024.000000pt" viewBox="0 0 1024.000000 1024.000000"
 preserveAspectRatio="xMidYMid meet">

<g transform="translate(0.000000,1024.000000) scale(0.100000,-0.100000)"
fill="#000000" stroke="none">
<path d="M4985 9466 c-143 -19 -337 -83 -430 -141 -85 -53 -179 -136 -216
-190 -13 -19 -29 -34 -35 -33 -11 3 -97 115 -174 228 l-35 51 -59 -5 c-32 -3
-294 -6 -582 -6 l-524 0 -6 -23 c-5 -24 -35 -68 -129 -191 -27 -36 -88 -120
-135 -187 -47 -66 -99 -139 -117 -162 -18 -23 -59 -81 -92 -129 -34 -48 -98
-138 -143 -201 -46 -62 -87 -120 -93 -128 -5 -9 -31 -44 -57 -80 -27 -35 -95
-131 -153 -214 -120 -171 -221 -312 -265 -370 -44 -57 -117 -159 -168 -234
-24 -36 -59 -85 -78 -110 -105 -139 -297 -401 -368 -503 -44 -64 -108 -155
-141 -203 -122 -174 -281 -407 -310 -453 -17 -27 -53 -79 -81 -118 -29 -38
-86 -121 -128 -184 -42 -63 -95 -143 -119 -177 -64 -96 -97 -149 -97 -161 0
-6 16 -46 36 -89 49 -105 143 -302 160 -335 18 -33 12 -49 -46 -123 -63 -81
-83 -117 -114 -205 -52 -147 -57 -230 -26 -419 13 -77 58 -169 100 -205 34
-28 46 -31 83 -17 21 8 29 5 50 -19 14 -15 33 -43 43 -62 9 -18 36 -55 59 -83
44 -52 173 -246 218 -327 14 -25 42 -71 62 -101 l37 -55 -7 -100 c-6 -81 -4
-109 10 -151 35 -106 89 -178 178 -238 30 -21 52 -46 62 -70 9 -21 31 -49 50
-63 19 -14 71 -74 116 -135 46 -60 96 -126 111 -145 16 -19 32 -39 36 -45 4
-5 35 -44 68 -85 33 -41 77 -100 98 -130 48 -72 204 -283 336 -455 58 -75 117
-155 131 -179 14 -23 38 -55 54 -71 63 -68 103 -134 130 -215 15 -47 34 -97
41 -111 26 -51 105 -139 142 -156 20 -9 62 -42 92 -73 65 -64 265 -314 329
-411 24 -37 57 -74 72 -83 25 -15 217 -16 2237 -16 l2211 0 43 53 c39 49 70
91 170 227 160 218 200 275 247 345 30 44 68 96 86 115 17 19 43 51 56 70 13
19 46 63 74 97 27 33 62 78 77 100 29 40 88 117 185 240 45 58 65 76 102 89
25 9 70 24 99 35 78 28 240 143 372 265 25 23 63 58 85 77 138 119 195 183
220 247 60 153 66 297 19 435 l-24 70 29 22 c38 30 107 138 131 204 10 30 24
85 30 121 10 57 19 75 66 132 30 36 85 114 124 173 38 59 83 126 98 148 16 22
42 63 58 90 62 109 124 184 162 196 117 37 174 96 213 219 40 125 21 378 -37
477 -13 23 -24 48 -24 56 0 7 -31 59 -70 115 -38 56 -70 103 -70 106 0 10 64
96 71 96 3 0 14 21 24 48 27 72 53 130 93 210 34 69 35 74 23 110 -19 52 -233
374 -324 485 -26 31 -54 72 -63 90 -9 17 -47 73 -84 122 -37 50 -79 108 -93
130 -15 22 -71 101 -124 176 -54 75 -143 199 -197 275 -55 77 -138 190 -185
253 -168 223 -195 261 -360 496 -35 50 -89 124 -120 165 -31 41 -77 104 -101
140 -25 36 -56 79 -70 96 -14 17 -50 66 -80 108 -30 43 -85 119 -122 169 -37
51 -76 106 -88 122 -12 17 -51 71 -88 121 -37 50 -92 126 -122 169 -30 43 -97
135 -148 204 -51 69 -98 133 -103 144 -6 10 -36 53 -67 95 -32 42 -64 86 -72
98 -8 11 -37 50 -64 86 l-48 66 -232 7 c-127 3 -395 5 -594 3 l-364 -3 -21
-26 c-12 -14 -27 -34 -33 -44 -10 -18 -15 -16 -80 20 -118 65 -141 75 -246 99
-191 44 -259 51 -373 38 -66 -7 -115 -8 -135 -2 -58 17 -250 20 -355 6z m310
-55 c-6 -5 -41 -21 -80 -36 -38 -14 -76 -31 -85 -39 -8 -7 -47 -31 -85 -53
-39 -23 -98 -66 -133 -97 -34 -30 -71 -60 -82 -66 -37 -20 -185 -196 -235
-281 -114 -191 -144 -303 -145 -526 0 -104 1 -103 -71 -78 -23 9 -88 19 -143
24 -90 8 -105 7 -138 -10 -21 -11 -38 -23 -38 -27 0 -4 39 -13 88 -20 185 -25
273 -45 452 -101 135 -42 242 -80 470 -167 36 -14 87 -32 114 -40 27 -9 81
-31 120 -49 66 -30 182 -65 217 -65 23 0 60 44 69 82 16 68 62 215 85 273 13
33 29 78 36 100 12 40 86 186 99 195 3 3 9 12 12 20 12 33 108 150 198 241 75
75 109 103 163 127 147 69 213 74 357 33 104 -31 157 -59 181 -98 11 -18 26
-33 34 -33 7 0 25 -17 41 -37 16 -21 33 -43 39 -50 25 -30 34 -43 86 -128 54
-89 68 -118 107 -225 21 -57 30 -86 37 -117 2 -10 12 -63 24 -118 44 -215 33
-519 -23 -639 -41 -90 -48 -95 -156 -102 -55 -4 -127 -1 -170 5 -41 6 -142 18
-225 27 -82 8 -229 30 -325 49 -96 18 -200 36 -230 40 -30 3 -71 8 -91 11 -20
2 -54 7 -75 9 -236 29 -480 81 -654 140 -58 20 -159 54 -225 75 -66 22 -133
45 -150 51 -16 6 -102 35 -190 65 -88 30 -173 59 -190 65 -31 11 -65 21 -205
63 -47 13 -150 39 -230 56 -295 63 -292 62 -265 104 9 14 15 31 13 37 -5 16
-47 -56 -55 -92 -3 -16 0 -35 7 -43 12 -15 19 -17 255 -62 160 -30 210 -45
650 -192 620 -206 701 -231 870 -271 97 -22 377 -66 490 -76 89 -8 238 -33
270 -45 39 -15 259 -49 383 -59 63 -5 117 -12 120 -16 10 -10 -46 -48 -93 -63
-35 -11 -63 -19 -180 -52 -127 -36 -255 -61 -340 -67 -113 -6 -332 10 -445 33
-208 43 -301 66 -336 81 -22 9 -77 24 -124 34 -47 10 -155 38 -240 63 -85 25
-171 50 -190 55 -74 21 -177 49 -220 60 -110 29 -157 43 -185 55 -16 8 -46 16
-66 20 -20 3 -53 15 -75 25 -21 10 -61 24 -89 31 -27 7 -99 35 -160 62 -60 27
-137 58 -170 69 -33 11 -69 24 -80 29 -11 5 -58 22 -105 39 -181 63 -223 82
-270 116 -26 19 -51 42 -54 51 -10 25 -7 81 5 107 26 57 194 130 340 148 52 6
99 15 104 19 6 5 19 34 29 64 l19 56 42 0 c46 0 69 17 63 47 -2 12 -14 19 -36
21 -37 4 -37 4 -16 84 33 131 138 304 267 443 59 64 67 69 81 54 15 -14 13
-21 -18 -85 -61 -127 -130 -308 -179 -474 -44 -149 -44 -151 18 -164 l30 -6 1
67 c1 74 18 141 72 273 19 47 49 122 67 168 60 150 188 353 280 444 74 73 137
116 235 158 41 18 80 36 86 41 6 5 74 22 150 38 111 24 165 30 269 30 79 1
125 -3 120 -8z m426 -21 c70 -14 188 -49 259 -77 111 -45 132 -62 184 -150 4
-8 -7 -16 -36 -23 -200 -49 -297 -92 -423 -185 -146 -107 -275 -294 -367 -530
-37 -94 -76 -241 -66 -250 3 -3 17 -3 32 1 20 5 28 16 37 48 50 182 106 319
170 411 19 28 47 70 61 95 25 44 191 210 209 210 5 0 28 12 50 26 168 106 382
141 499 83 45 -22 190 -116 190 -123 0 -2 -17 0 -37 5 -71 16 -214 10 -261
-11 -40 -18 -198 -131 -253 -181 -36 -33 -116 -130 -172 -211 -79 -112 -183
-337 -218 -468 -55 -210 -53 -205 -90 -202 -52 4 -227 66 -346 123 -33 16 -76
32 -95 36 -18 3 -64 19 -103 36 -78 32 -165 61 -305 102 -170 49 -165 46 -168
101 -5 71 18 211 45 269 12 28 23 56 23 63 0 25 64 162 106 228 44 69 198 240
254 281 159 117 203 146 270 179 41 20 102 50 135 67 127 62 256 76 416 47z
m-1501 -415 c-12 -15 -30 -12 -30 5 0 8 31 19 39 13 2 -1 -2 -9 -9 -18z m-670
-1305 c11 -7 5 -10 -23 -10 -23 0 -36 4 -32 10 8 13 35 13 55 0z m191 -56
c162 -48 253 -135 300 -285 63 -201 -36 -454 -184 -473 -83 -10 -156 -36 -202
-72 -52 -39 -87 -43 -198 -19 -140 29 -250 115 -310 243 -30 63 -32 74 -32
177 1 141 22 200 105 289 64 68 145 115 240 140 75 20 213 20 281 0z m-1083
-112 c10 -7 8 -12 -5 -24 -12 -11 -37 -16 -80 -16 -33 0 -78 -6 -100 -12 -113
-36 -162 -54 -203 -75 -72 -35 -161 -85 -208 -116 -24 -16 -57 -36 -74 -45
-59 -31 -309 -239 -436 -364 -272 -267 -472 -538 -505 -683 l-15 -69 29 -42
c17 -23 46 -51 65 -61 34 -18 38 -18 100 -2 59 16 214 86 309 141 76 44 153
91 195 121 24 17 53 37 65 45 12 8 49 37 81 63 67 55 94 72 94 59 0 -27 -142
-150 -204 -176 -17 -7 -57 -31 -90 -52 -32 -21 -77 -51 -100 -67 -127 -84
-380 -187 -463 -187 -57 0 -123 84 -123 158 0 71 74 206 239 432 80 110 342
380 465 480 37 30 96 79 129 108 79 67 239 176 342 232 44 24 98 53 120 65 22
12 53 25 68 29 16 4 38 15 49 26 33 30 221 54 256 32z m1378 -21 c57 -28 232
-85 364 -120 63 -17 156 -42 205 -57 50 -14 144 -39 210 -55 66 -17 121 -32
123 -34 2 -1 -29 -13 -68 -25 -86 -27 -157 -72 -229 -148 -93 -97 -130 -226
-110 -385 10 -77 50 -187 69 -187 6 0 10 -6 10 -13 0 -30 102 -119 175 -153
100 -46 160 -57 279 -52 96 5 131 14 226 56 129 57 248 195 265 309 9 58 11
67 19 83 7 16 3 63 -7 90 -3 8 -8 35 -12 60 -7 60 -49 147 -88 188 -31 33 -32
33 -7 28 128 -28 421 -66 510 -66 267 0 669 101 759 190 33 33 44 37 108 43
60 6 78 4 119 -14 69 -31 142 -110 189 -204 39 -78 40 -82 40 -185 0 -102 -2
-108 -41 -190 -51 -108 -101 -177 -154 -215 -23 -16 -50 -37 -60 -46 -24 -23
-132 -85 -161 -94 -23 -7 -157 -66 -189 -84 -19 -10 -53 -94 -97 -240 -19 -64
-42 -131 -51 -149 -15 -29 -146 -142 -165 -142 -18 0 -176 -103 -203 -132 -55
-59 -63 -80 -60 -151 2 -59 6 -70 43 -119 43 -57 119 -114 195 -147 89 -38
141 -85 206 -186 54 -84 82 -145 90 -202 11 -68 1 -181 -20 -238 -9 -22 -28
-86 -43 -142 -16 -56 -31 -100 -35 -98 -4 3 -10 19 -14 36 -15 78 -60 70 -49
-9 4 -31 3 -43 -5 -39 -27 18 -39 -4 -39 -70 1 -53 -3 -68 -18 -79 -29 -21
-54 1 -95 81 -55 108 -74 97 -82 -46 -4 -59 -13 -101 -28 -135 l-23 -49 -7 30
c-4 17 -9 50 -10 75 -2 65 -23 115 -46 115 -17 0 -19 -7 -18 -60 0 -33 6 -93
13 -133 13 -77 9 -114 -11 -94 -6 6 -25 66 -42 132 -29 114 -47 145 -52 93 -2
-13 -5 -31 -8 -40 -3 -10 -10 -38 -16 -62 -14 -54 -30 -39 -30 30 0 25 -6 54
-14 65 -14 18 -15 18 -25 -9 -6 -15 -17 -30 -25 -33 -8 -3 -17 -17 -21 -31 -8
-35 -35 -73 -50 -73 -7 0 -20 12 -30 26 -23 36 -6 75 52 116 28 21 40 35 34
41 -15 15 -80 -17 -131 -64 -44 -40 -59 -45 -42 -12 20 37 54 201 59 288 12
194 -37 249 -262 294 -188 39 -279 69 -319 108 -48 47 -57 85 -40 168 8 36 18
74 23 84 6 10 24 60 40 112 38 118 35 123 -64 107 -38 -5 -225 -11 -415 -12
-372 -1 -381 0 -545 57 -81 29 -231 102 -260 128 -11 10 -32 24 -47 32 -59 30
-220 184 -393 376 -109 121 -175 215 -175 249 0 19 -29 74 -55 102 -85 94
-165 268 -165 359 0 111 124 391 173 391 7 0 29 -16 48 -36 77 -80 201 -133
319 -137 l68 -2 -14 -27 c-8 -15 -14 -36 -14 -46 0 -22 -15 -36 -48 -47 -41
-12 -144 -78 -149 -94 -3 -9 -16 -42 -30 -75 -35 -82 -30 -172 13 -242 30 -50
91 -94 130 -94 19 0 20 -6 21 -92 1 -189 79 -328 182 -328 39 0 96 29 137 69
l31 31 44 -44 c27 -26 61 -49 86 -56 39 -12 48 -11 103 11 104 41 105 43 105
235 l0 165 82 2 c75 2 84 5 120 33 49 40 93 111 100 162 12 90 -85 218 -226
297 -62 35 -71 44 -72 70 -4 92 -59 149 -186 191 l-63 20 26 25 c14 13 41 49
58 80 83 140 79 326 -9 473 -18 31 -32 56 -31 56 1 0 20 -9 42 -19z m-1162
-125 c125 -127 202 -231 215 -287 9 -38 6 -52 -15 -104 -14 -33 -49 -125 -77
-205 -49 -141 -51 -148 -51 -257 -1 -62 -2 -113 -3 -113 -1 0 -11 33 -24 73
-70 230 -234 427 -354 427 -27 0 -45 5 -45 11 0 6 17 37 38 68 21 31 67 108
103 171 l64 115 1 105 c0 58 1 109 2 113 4 17 52 -21 146 -117z m-269 34 c3
-5 1 -17 -4 -27 -5 -10 -27 -55 -47 -100 -21 -46 -42 -83 -46 -83 -5 0 -8 -5
-8 -11 0 -21 -116 -188 -195 -279 -114 -131 -433 -450 -451 -450 -4 0 -21 -12
-39 -27 -93 -79 -130 -109 -149 -118 -49 -26 -203 -120 -221 -135 -11 -9 -27
-20 -35 -23 -8 -3 -53 -22 -100 -42 -106 -45 -161 -53 -196 -30 -24 16 -26 22
-22 70 4 44 14 68 60 137 30 46 61 94 68 108 7 13 19 31 27 38 29 29 63 80 63
93 0 17 297 321 420 430 47 41 114 96 150 122 36 26 79 58 95 71 17 13 75 50
130 81 55 32 107 63 115 70 22 18 124 60 215 88 83 26 160 34 170 17z m64 -86
c-6 -16 -13 -38 -15 -49 -4 -30 -77 -167 -135 -254 -59 -87 -99 -129 -117
-123 -8 2 -10 -2 -6 -13 8 -19 -11 -35 -41 -35 -17 0 -15 5 15 33 35 33 46 48
78 101 9 16 25 37 34 47 29 30 124 202 160 286 21 51 34 71 36 57 2 -11 -2
-34 -9 -50z m4534 -143 c23 -30 57 -71 75 -90 18 -20 59 -70 90 -111 69 -91
69 -92 126 -160 24 -30 63 -78 86 -107 l41 -51 -64 -129 c-35 -70 -90 -182
-121 -248 -53 -111 -207 -418 -273 -543 -15 -30 -32 -54 -38 -54 -5 0 -38 48
-74 108 -35 60 -89 149 -119 197 -30 48 -74 124 -97 167 l-43 79 82 47 c192
110 302 238 356 411 56 180 34 307 -80 458 -37 49 -73 100 -81 113 -11 17 -23
22 -54 22 -33 1 -37 3 -22 11 10 6 31 8 46 4 18 -4 32 -2 36 6 8 12 57 -37
128 -130z m-2008 4 c220 -58 345 -230 333 -459 -4 -71 -11 -103 -32 -148 -155
-327 -663 -371 -864 -75 -53 77 -67 131 -67 252 0 106 1 113 35 180 61 122
174 210 320 249 73 19 201 20 275 1z m-2543 -399 c80 -56 119 -115 178 -267
69 -179 92 -217 203 -332 79 -81 106 -116 116 -149 18 -61 43 -98 136 -203
l82 -92 -14 -74 c-7 -41 -18 -108 -23 -149 -5 -41 -11 -88 -14 -105 -3 -16
-11 -109 -17 -207 l-13 -176 -55 39 c-96 67 -126 93 -187 155 -32 34 -88 85
-124 115 -195 162 -357 377 -488 647 -65 136 -88 167 -133 183 -19 7 -36 33
-69 102 -40 84 -43 98 -41 160 1 37 6 79 11 93 6 14 10 43 10 65 0 36 -3 40
-31 46 l-31 6 28 23 27 24 45 -97 c60 -131 82 -163 111 -163 22 0 23 3 19 54
-3 41 -14 70 -47 121 -23 37 -41 77 -39 87 3 18 7 17 46 -14 88 -67 105 -78
123 -78 40 0 -18 77 -116 155 -34 27 -27 44 10 27 39 -18 58 -15 50 6 -5 14
-4 15 6 5 7 -7 21 -13 31 -13 9 0 46 -29 81 -64 57 -57 101 -86 113 -73 10 9
-60 129 -97 166 -21 21 -36 41 -33 44 11 11 80 -21 146 -67z m5092 -275 c25
-33 52 -66 59 -73 6 -7 41 -51 77 -98 35 -47 68 -89 72 -95 4 -5 35 -44 69
-85 34 -41 72 -91 85 -110 13 -19 43 -61 66 -93 24 -32 83 -114 132 -183 l89
-126 -17 -36 c-31 -65 -203 -346 -282 -462 -26 -38 -87 -137 -129 -208 -5 -9
-32 -50 -60 -89 l-50 -73 -47 0 c-27 0 -51 -1 -55 -2 -4 -2 -31 31 -60 72 -29
41 -56 80 -61 85 -4 6 -34 51 -66 100 -52 79 -80 117 -116 162 -5 6 -27 39
-49 73 -22 33 -51 75 -65 93 -52 64 -143 193 -159 223 -15 29 -14 33 11 90 15
32 48 100 75 149 46 87 88 172 204 415 30 63 84 175 120 248 l66 132 22 -24
c13 -14 44 -52 69 -85z m-3500 59 c113 -64 206 -171 206 -236 0 -92 -90 -184
-179 -184 -17 0 -83 21 -148 47 -102 40 -130 47 -205 51 -79 4 -98 1 -195 -31
-137 -45 -196 -57 -236 -47 -52 12 -60 18 -92 63 -27 37 -30 50 -30 112 0 48
6 81 19 104 28 53 97 115 144 130 42 14 44 14 69 -13 53 -57 103 -71 258 -71
138 0 141 1 212 34 40 19 80 42 89 52 22 25 25 24 88 -11z m-2174 -74 c-27
-26 -78 -47 -66 -27 6 10 73 49 86 51 2 0 -7 -11 -20 -24z m35 -113 c-10 -7
-22 -14 -26 -15 -5 -2 -6 -13 -3 -26 5 -16 10 -20 18 -13 19 16 30 1 73 -99
40 -91 44 -95 90 -116 47 -20 51 -25 112 -145 146 -287 201 -366 390 -561 59
-60 101 -112 99 -120 -7 -17 -275 -151 -358 -178 -150 -50 -239 -65 -385 -64
-198 0 -216 10 -472 260 -67 65 -148 141 -179 168 -82 73 -313 332 -357 404
-29 44 -28 45 15 42 59 -3 239 55 316 104 21 12 77 44 126 70 49 27 136 84
193 127 57 44 108 79 114 79 5 0 26 16 48 35 32 29 97 66 116 65 56 -1 64 1
71 23 l8 22 4 -24 c2 -16 -3 -30 -13 -38z m867 -28 c9 -20 9 -20 -6 -1 -9 11
-16 27 -15 35 0 14 1 14 6 1 3 -8 10 -24 15 -35z m3825 -221 c24 -43 48 -90
55 -104 7 -14 15 -27 18 -30 6 -6 109 -175 157 -259 70 -121 67 -112 53 -150
-12 -32 -45 -88 -61 -101 -14 -12 -134 -210 -169 -281 -22 -43 -44 -80 -50
-84 -6 -4 -73 -6 -150 -6 -101 1 -150 -3 -174 -13 -32 -13 -37 -13 -58 6 -13
11 -63 40 -112 65 -95 47 -193 121 -220 165 -9 14 -16 48 -16 75 0 75 31 105
225 213 156 87 191 132 246 318 63 214 55 201 129 238 36 18 69 32 75 30 5 -1
29 -38 52 -82z m-2743 42 c34 -13 68 -26 77 -29 13 -4 17 -29 23 -134 11 -201
-1 -235 -92 -266 -39 -14 -45 -13 -85 7 -23 11 -53 37 -66 56 -23 34 -23 39
-17 180 3 80 8 162 12 184 l7 38 40 -6 c22 -4 68 -17 101 -30z m-218 -158 l-3
-182 -48 -43 c-62 -56 -109 -61 -157 -15 -52 48 -87 190 -73 292 l7 49 56 16
c32 10 89 28 127 41 39 13 76 24 83 24 9 0 11 -40 8 -182z m-121 -609 c117
-88 208 -135 376 -193 151 -51 234 -59 559 -52 162 3 322 9 354 12 68 8 66 21
16 -116 -44 -117 -51 -217 -20 -282 19 -41 31 -51 100 -87 43 -23 102 -47 131
-55 74 -18 76 -41 12 -93 -77 -62 -204 -192 -265 -273 -73 -95 -120 -184 -154
-290 -22 -72 -26 -97 -22 -175 4 -90 5 -90 67 -195 35 -58 76 -124 92 -147 16
-23 29 -44 29 -47 0 -4 18 -29 40 -57 22 -28 40 -55 40 -60 0 -12 -145 -11
-235 1 -38 5 -114 14 -167 20 -329 36 -678 152 -938 313 -185 114 -325 212
-376 261 -12 12 -53 46 -92 76 -39 30 -72 62 -72 71 0 8 12 26 26 40 40 37 51
65 73 189 27 153 40 312 56 690 14 306 36 545 55 604 6 16 10 43 10 61 0 17 3
35 6 38 4 4 59 -42 123 -101 64 -59 143 -128 176 -153z m4853 134 c15 -14 49
-44 76 -67 81 -67 356 -340 356 -353 0 -6 -39 -54 -87 -105 -105 -112 -206
-227 -328 -374 -49 -59 -97 -115 -105 -124 -49 -50 -226 -261 -246 -292 -14
-21 -26 -38 -28 -38 -8 0 -326 531 -326 544 0 4 15 26 34 49 30 38 156 234
156 243 0 2 16 26 35 53 19 26 35 52 35 56 0 4 13 24 28 44 45 59 232 364 232
379 0 15 34 40 60 44 26 4 62 -16 108 -59z m-1382 -60 c28 -38 61 -84 75 -104
13 -20 41 -58 62 -85 67 -86 131 -178 166 -234 18 -30 37 -57 40 -60 4 -3 43
-58 86 -123 44 -65 86 -126 93 -136 11 -15 7 -25 -23 -67 -32 -44 -171 -249
-290 -426 -25 -37 -50 -70 -55 -73 -5 -3 -14 14 -20 37 -7 24 -20 66 -30 93
-10 28 -31 84 -46 125 -15 41 -40 110 -55 152 -16 43 -37 95 -49 118 -11 22
-34 82 -51 132 -49 146 -89 198 -189 245 -30 14 -56 27 -58 29 -2 1 15 32 37
69 23 37 41 69 41 71 0 2 25 42 56 89 53 83 56 86 77 72 12 -7 36 -35 52 -60
33 -52 45 -58 45 -24 0 28 -54 104 -80 112 -18 6 -17 10 17 61 20 30 39 54 42
54 4 0 30 -30 57 -67z m2409 -203 l50 -25 -74 -7 c-89 -9 -134 -34 -162 -91
-16 -30 -20 -51 -16 -81 5 -34 54 -157 86 -216 11 -19 90 -38 168 -39 74 -1
74 -1 98 -120 17 -86 54 -185 87 -233 10 -14 18 -30 18 -35 0 -4 21 -35 46
-68 44 -59 45 -60 21 -66 -36 -10 -165 -1 -224 14 -28 8 -77 29 -108 48 -64
39 -248 213 -276 262 -73 125 -121 292 -115 398 7 114 78 257 138 277 18 6 74
10 123 9 73 -2 99 -7 140 -27z m-8488 -5 c46 -19 96 -84 130 -169 32 -77 28
-160 -11 -256 -54 -132 -177 -304 -275 -385 -34 -28 -61 -53 -61 -57 0 -13
-107 -82 -176 -114 -87 -40 -133 -46 -249 -37 l-90 8 -34 85 c-32 79 -34 93
-35 200 0 124 12 178 72 310 61 135 253 334 372 386 96 42 287 57 357 29z
m8112 -52 c-52 -82 -71 -165 -66 -284 5 -129 9 -143 62 -254 30 -62 62 -109
102 -150 76 -79 204 -195 216 -195 5 0 22 -9 38 -21 83 -59 272 -103 343 -79
27 9 40 8 57 -1 22 -11 21 -13 -26 -37 -46 -23 -56 -24 -155 -18 -175 10 -265
50 -428 191 -35 31 -126 153 -167 225 -86 150 -111 295 -80 457 20 105 46 158
94 190 19 13 35 23 37 23 2 0 -10 -21 -27 -47z m-6320 -15 c-7 -13 -45 -66
-84 -118 -95 -125 -204 -289 -211 -317 -5 -18 -13 -23 -38 -23 -17 0 -38 -4
-46 -9 -10 -7 -18 -3 -30 17 -9 15 -40 52 -68 83 -29 31 -52 60 -52 64 0 4 -9
20 -21 37 -24 34 -25 33 21 46 42 13 150 51 241 85 64 24 164 77 244 130 50
32 59 33 44 5z m6781 2 c19 -6 71 -42 115 -80 44 -39 83 -70 86 -70 8 0 93
-129 147 -220 30 -53 62 -192 69 -299 7 -110 -11 -191 -51 -237 l-23 -28 -29
23 c-16 12 -41 43 -55 69 -95 172 -110 207 -129 289 -11 48 -33 119 -47 157
l-27 68 -66 -4 c-139 -9 -230 61 -238 185 -3 52 0 67 20 96 35 52 141 76 228
51z m-6530 -157 c41 -32 87 -67 103 -76 24 -15 27 -24 27 -70 0 -98 -31 -482
-45 -557 -8 -41 -17 -95 -20 -120 -10 -62 -62 -140 -94 -140 -8 0 -84 79 -126
130 -65 80 -126 162 -158 210 -20 30 -53 75 -72 100 -46 60 -125 194 -125 212
0 25 198 317 222 326 4 2 8 8 8 14 0 5 23 36 51 68 l50 58 52 -48 c29 -26 86
-74 127 -107z m5902 -104 c-7 -183 20 -274 129 -435 80 -120 141 -186 237
-258 70 -54 105 -72 179 -96 51 -16 116 -30 145 -31 71 -2 76 -7 36 -34 -18
-13 -58 -46 -88 -74 -30 -28 -58 -51 -62 -51 -3 0 -9 -12 -12 -28 -5 -18 -17
-32 -39 -41 -39 -17 -69 -42 -164 -132 -40 -38 -78 -69 -86 -69 -7 0 -27 29
-45 64 -59 116 -151 218 -259 289 -149 97 -263 132 -433 131 -104 0 -184 -24
-239 -69 -18 -16 -31 -21 -38 -14 -17 17 -118 -227 -148 -361 -8 -36 -18 -76
-21 -90 -12 -52 27 14 87 148 17 39 36 72 40 72 13 0 31 -79 23 -103 -3 -12
-21 -47 -38 -77 -69 -121 -66 -150 9 -76 l45 45 0 -74 0 -75 -61 -40 c-163
-105 -301 -229 -414 -370 l-57 -72 -62 5 c-102 8 -177 25 -197 42 -41 38 -46
110 -12 180 13 25 115 168 133 185 3 3 30 34 60 70 30 36 67 77 82 92 14 16
48 54 74 85 27 32 67 78 89 103 22 25 61 70 87 100 25 30 69 82 98 115 29 33
86 107 128 165 41 58 80 110 86 116 6 6 49 53 96 104 47 52 110 121 140 154
31 34 78 88 105 121 73 89 362 405 370 405 1 0 -1 -55 -3 -121z m-7544 -97
c77 -77 139 -148 347 -402 61 -74 127 -153 147 -175 21 -23 45 -58 53 -78 8
-21 21 -37 28 -37 6 0 24 -22 39 -48 27 -47 114 -155 231 -286 34 -38 86 -96
116 -130 29 -34 70 -77 91 -97 34 -32 38 -42 44 -107 5 -52 3 -79 -6 -99 l-14
-28 -114 1 c-77 1 -145 9 -205 22 -106 25 -200 57 -200 69 0 4 14 35 31 68 97
185 98 396 4 555 -52 88 -93 109 -238 121 -126 10 -189 5 -292 -26 -153 -46
-266 -115 -401 -246 -70 -69 -134 -150 -167 -213 -21 -38 -21 -39 -26 -12 -4
14 -9 38 -12 53 -7 33 -66 91 -112 110 -18 8 -52 31 -75 52 -23 21 -47 40 -54
42 -15 5 -113 118 -136 157 l-17 30 59 -5 c101 -9 214 28 306 101 29 22 73 57
98 76 60 45 175 187 220 270 57 107 91 237 92 355 l0 100 43 -58 c23 -31 77
-92 120 -135z m356 173 c65 -50 109 -59 272 -59 l150 0 30 -49 c16 -27 38 -58
49 -70 39 -42 95 -122 95 -135 0 -12 -30 -68 -110 -207 -9 -16 -48 -82 -87
-145 -38 -63 -77 -134 -88 -157 -10 -24 -21 -43 -25 -43 -4 0 -21 20 -38 44
-61 84 -247 317 -302 376 -105 114 -232 280 -226 295 6 17 68 57 120 79 20 8
36 20 36 26 0 13 15 29 50 53 32 22 35 22 74 -8z m4853 1 c84 -18 126 -52 152
-121 26 -69 26 -92 1 -181 -32 -118 -127 -269 -243 -390 -40 -41 -78 -74 -84
-74 -15 0 -9 71 12 140 8 25 24 87 36 139 37 162 14 302 -71 428 -21 32 -36
61 -34 65 8 13 164 8 231 -6z m177 -8 c43 -28 72 -71 87 -128 11 -41 9 -56
-15 -140 -63 -219 -197 -426 -350 -540 -29 -21 -74 -59 -101 -84 -53 -51 -65
-56 -65 -26 0 12 10 24 24 30 57 21 245 212 330 332 106 154 154 294 141 415
-7 64 -10 71 -55 115 -51 52 -50 61 4 26z m-5641 -195 c-24 -163 -101 -310
-223 -429 -43 -42 -172 -132 -236 -164 -48 -25 -77 -32 -140 -36 l-79 -4 65
15 c135 31 378 228 492 399 42 63 100 181 111 229 11 40 17 33 10 -10z m7946
-18 c0 -5 -4 -3 -9 5 -5 8 -9 22 -9 30 0 16 17 -16 18 -35z m-2098 -190 c29
-77 62 -167 74 -200 13 -33 37 -103 55 -155 18 -52 48 -138 67 -190 54 -148
84 -259 90 -331 8 -96 -13 -218 -52 -308 -18 -42 -37 -89 -41 -104 -3 -16 -35
-68 -70 -115 -35 -48 -76 -104 -91 -125 -34 -47 -184 -196 -238 -237 -104 -78
-189 -132 -276 -175 -52 -26 -101 -50 -109 -55 -29 -14 -184 -58 -260 -74
-183 -36 -223 -40 -321 -28 -166 19 -244 64 -355 203 -37 46 -87 107 -111 135
-23 28 -43 55 -43 59 0 4 -24 39 -53 79 -142 188 -326 459 -416 610 -39 67
-49 92 -33 84 111 -57 146 -67 287 -78 110 -8 222 -1 318 21 27 6 74 15 105
20 145 21 177 29 188 44 8 11 14 13 19 5 5 -8 14 -5 29 9 12 11 38 27 60 36
38 16 54 12 79 -20 4 -6 18 3 35 22 15 17 59 48 97 68 39 20 84 46 102 58 31
21 42 50 24 61 -9 6 -4 46 6 46 2 0 14 -12 26 -26 l23 -26 61 26 c34 14 69 23
77 20 9 -3 16 -2 16 4 0 6 -5 12 -11 14 -7 2 39 45 102 95 105 84 217 197 281
283 40 54 123 226 153 315 39 119 36 113 45 90 5 -11 32 -83 61 -160z m2119
130 c0 -5 -5 -3 -10 5 -5 8 -10 20 -10 25 0 6 5 3 10 -5 5 -8 10 -19 10 -25z
m20 -50 c0 -5 -5 -3 -10 5 -5 8 -10 20 -10 25 0 6 5 3 10 -5 5 -8 10 -19 10
-25z m-1342 -82 c116 -199 177 -299 230 -376 28 -43 52 -81 52 -86 0 -4 -25
-36 -56 -69 -31 -34 -77 -88 -102 -120 -26 -32 -67 -79 -92 -106 -24 -26 -51
-58 -60 -70 -8 -13 -46 -57 -85 -98 -252 -269 -365 -429 -365 -516 0 -21 11
-61 25 -88 33 -67 80 -94 166 -95 35 -1 75 -4 87 -8 23 -6 22 -8 -25 -54 -26
-26 -81 -64 -121 -85 l-73 -37 -32 36 c-18 19 -64 71 -104 115 -39 43 -81 92
-93 107 l-22 28 67 98 c65 96 110 198 151 347 31 113 3 350 -57 481 -43 94
-46 82 81 267 8 11 54 76 102 143 49 67 88 124 88 128 0 19 93 147 113 155 52
21 60 15 125 -97z m-5290 70 c7 -10 36 -54 64 -98 29 -44 56 -84 61 -90 4 -5
33 -44 63 -85 82 -113 145 -195 187 -247 76 -91 75 -86 26 -138 -24 -25 -77
-73 -118 -108 -69 -58 -163 -159 -221 -237 -48 -64 -49 -64 -83 -33 -17 15
-42 41 -56 58 -14 16 -48 55 -76 85 -157 175 -194 217 -227 267 -21 30 -38 62
-38 70 0 20 22 61 115 213 45 74 108 180 140 235 32 55 63 106 68 113 15 19
80 15 95 -5z m2847 -93 c11 0 -18 -22 -67 -49 -91 -51 -230 -168 -276 -233
-15 -20 -48 -63 -74 -96 -53 -67 -119 -192 -143 -272 -9 -30 -21 -70 -26 -88
-7 -22 -7 -37 -1 -45 14 -17 19 -56 7 -59 -5 -2 -15 19 -22 46 -12 49 -5 126
16 171 5 11 18 40 29 65 57 137 198 319 334 434 33 28 83 71 111 94 36 32 55
42 71 38 11 -3 30 -6 41 -6z m143 -170 c5 -150 -22 -262 -80 -342 -15 -20 -4
-45 27 -62 10 -6 32 -26 49 -45 92 -103 131 -125 221 -126 38 -1 76 -2 83 -3
25 -4 11 -19 -30 -32 -24 -7 -68 -21 -99 -31 -31 -10 -105 -26 -165 -35 -60
-9 -118 -17 -129 -19 -228 -35 -338 -28 -473 28 -64 27 -71 45 -47 135 38 144
84 236 184 362 48 61 58 71 162 154 123 99 159 117 234 114 l60 -3 3 -95z
m3803 74 c12 -14 11 -16 -5 -13 -11 2 -21 10 -24 17 -5 17 13 15 29 -4z
m-7492 -359 c51 -7 100 -30 121 -58 93 -126 106 -269 36 -407 -89 -174 -262
-353 -411 -425 -244 -117 -269 -127 -355 -137 -123 -16 -188 0 -251 59 -72 67
-92 117 -86 206 7 99 23 164 47 194 11 14 20 32 20 40 0 23 59 133 96 178 89
110 197 206 274 243 14 7 43 23 65 37 53 32 121 52 236 69 91 13 115 13 208 1z
m6771 -25 c131 -12 247 -61 348 -143 65 -54 150 -146 172 -187 89 -167 136
-317 127 -410 -8 -95 -79 -220 -123 -220 -26 1 -55 26 -92 80 -17 25 -58 73
-91 108 -34 34 -61 64 -61 67 0 2 16 -5 35 -16 35 -21 55 -19 55 6 0 8 -16 45
-36 82 -96 178 -160 236 -294 267 -65 15 -75 11 -61 -26 11 -29 23 -40 82 -70
54 -27 154 -118 192 -173 35 -52 34 -61 -5 -37 -74 45 -156 85 -222 109 -59
22 -89 26 -171 26 -55 0 -113 -5 -129 -12 -41 -17 -46 -5 -46 119 1 112 -5
157 -22 177 -18 22 -27 95 -15 118 24 45 85 96 142 120 67 27 80 28 215 15z
m-2280 -65 c0 -8 -9 -19 -20 -25 -15 -8 -20 -8 -20 3 0 14 19 37 32 37 4 0 8
-7 8 -15z m-593 -52 c-3 -10 -5 -4 -5 12 0 17 2 24 5 18 2 -7 2 -21 0 -30z
m-2582 -75 c56 -51 159 -132 237 -186 18 -13 67 -47 108 -76 41 -30 120 -77
175 -106 55 -29 114 -61 130 -70 43 -26 225 -98 320 -126 196 -60 370 -89 660
-109 116 -9 224 -20 240 -26 28 -9 116 -118 228 -282 46 -68 134 -179 219
-277 98 -114 171 -162 286 -189 112 -26 192 -26 346 -1 380 65 633 195 918
473 49 48 93 87 97 87 15 0 43 -27 94 -92 28 -37 75 -93 102 -126 100 -119
210 -278 233 -337 39 -102 51 -125 65 -125 7 0 23 -24 36 -54 14 -36 35 -64
59 -82 20 -15 47 -39 60 -52 12 -13 60 -51 105 -85 45 -33 106 -86 135 -116
48 -49 53 -59 49 -88 -10 -57 -61 -119 -124 -150 -54 -26 -66 -28 -179 -28
l-121 0 -103 90 c-57 50 -151 131 -209 181 -58 49 -158 142 -222 205 -173 171
-235 221 -303 243 -23 8 -105 -18 -161 -49 -22 -13 -63 -26 -91 -30 -62 -8
-318 15 -434 40 -3 0 -32 7 -66 14 -70 15 -109 12 -109 -9 0 -8 11 -20 25 -27
44 -21 288 -55 443 -61 l148 -7 -93 -92 c-150 -149 -198 -180 -443 -286 -147
-64 -197 -74 -415 -83 -131 -6 -153 -5 -225 16 -92 26 -265 97 -345 143 -181
103 -399 310 -537 510 -24 34 -56 80 -71 102 -16 22 -52 78 -80 125 -64 105
-179 258 -212 282 -28 20 -179 61 -285 77 -251 37 -473 13 -634 -70 -33 -17
-98 -69 -160 -129 -121 -115 -107 -109 -456 -205 -139 -37 -236 -56 -331 -62
-68 -4 -88 -2 -123 15 -78 38 -282 219 -296 263 -4 12 -13 18 -20 15 -8 -3
-28 13 -48 37 -43 53 -107 147 -107 157 0 13 113 78 156 89 23 6 72 11 110 10
88 -1 158 9 212 32 48 21 51 34 20 75 -17 21 -19 26 -6 22 9 -4 62 -16 118
-28 77 -17 117 -21 165 -15 111 12 145 58 145 198 0 82 9 109 50 147 3 3 23
27 45 55 74 91 176 189 289 274 l67 51 27 -19 c15 -10 54 -44 87 -73z m2932 2
c-3 -14 0 -20 10 -20 10 0 1 -14 -23 -35 -21 -20 -40 -32 -42 -27 -3 10 47
102 55 102 3 0 3 -9 0 -20z m2514 -440 c127 -41 221 -103 333 -222 69 -73 95
-110 132 -186 25 -52 53 -117 61 -146 22 -70 21 -204 -1 -251 -10 -20 -15 -43
-12 -51 5 -13 -20 -59 -64 -116 -49 -64 -266 -62 -398 4 -234 118 -453 370
-515 593 -21 75 -37 188 -30 212 3 10 25 28 49 40 l44 22 0 -22 c0 -14 11 -28
30 -39 35 -20 36 -18 45 47 12 78 29 113 62 121 15 3 33 7 38 9 35 12 170 3
226 -15z m-6706 -48 c-49 -47 -45 -35 9 25 16 18 32 31 35 28 3 -3 -17 -27
-44 -53z m146 -104 c58 -30 74 -48 44 -48 -8 0 -59 -5 -114 -11 -54 -6 -109
-9 -121 -7 -22 3 -21 6 20 56 40 51 44 54 77 47 19 -3 62 -20 94 -37z m6039
-270 c53 -176 212 -389 386 -519 51 -37 105 -74 121 -83 16 -8 35 -22 42 -30
7 -9 17 -13 22 -11 4 3 6 -4 4 -15 -3 -17 -1 -19 17 -9 11 6 38 8 62 5 22 -4
79 -7 125 -8 l84 -1 -49 -45 c-27 -24 -69 -61 -94 -80 -25 -20 -61 -50 -80
-68 -94 -84 -236 -167 -388 -225 -35 -13 -68 -32 -74 -43 -21 -40 -82 -113
-132 -158 -50 -46 -86 -66 -53 -30 10 10 17 24 17 30 0 7 4 12 8 12 10 0 32
60 32 86 -1 66 -92 173 -253 293 -50 39 -105 81 -121 95 -16 15 -33 26 -38 26
-13 0 -50 92 -44 112 3 12 -1 18 -10 16 -10 -2 -26 25 -48 80 -19 46 -43 93
-53 105 -11 12 -32 43 -47 70 -15 26 -31 47 -36 47 -5 0 -14 9 -20 20 -9 17
-2 24 62 62 77 45 154 118 388 366 l135 144 7 -87 c3 -47 16 -118 28 -157z
m-6364 203 c-13 -15 -14 -20 -4 -24 16 -5 -15 -43 -42 -52 -10 -3 -48 -25 -85
-49 -36 -25 -104 -61 -151 -80 -46 -20 -111 -52 -143 -71 l-58 -34 -39 19
c-36 19 -64 45 -64 60 0 4 28 10 61 14 60 6 279 78 309 101 8 7 53 33 100 58
47 25 94 53 105 61 27 21 32 20 11 -3z m-54 -258 c57 -104 179 -237 303 -328
39 -29 79 -62 90 -74 18 -21 18 -24 3 -49 -19 -31 -69 -60 -149 -85 -129 -40
-212 -13 -355 113 -109 96 -160 138 -192 154 -17 9 -38 31 -46 49 -8 17 -26
50 -40 72 -13 23 -22 45 -18 51 12 18 157 92 193 99 19 3 61 21 94 39 33 19
63 34 67 35 4 0 26 -34 50 -76z m2051 13 c18 -7 53 -35 77 -62 25 -26 86 -90
136 -140 l90 -92 -40 -55 c-62 -83 -126 -163 -177 -220 -25 -29 -63 -77 -84
-107 -22 -30 -65 -84 -97 -119 -32 -35 -58 -68 -58 -72 0 -27 -41 6 -170 137
-80 80 -163 162 -185 183 -73 70 -181 185 -203 217 l-22 32 111 104 c127 122
169 147 299 182 110 29 269 35 323 12z m279 -39 c71 -31 148 -77 148 -87 0 -3
-11 -18 -24 -35 l-25 -30 -79 79 c-44 43 -90 85 -103 92 -49 27 10 14 83 -19z
m-66 -44 c30 -31 52 -59 49 -61 -3 -3 -6 -3 -7 -1 -2 2 -28 30 -58 62 -30 31
-51 57 -46 57 5 0 33 -26 62 -57z m-976 -256 c0 -16 23 -46 73 -94 94 -92 199
-204 195 -209 -2 -2 -24 4 -48 14 -58 21 -196 20 -310 -3 -109 -22 -210 -70
-304 -145 -84 -68 -217 -206 -252 -262 -13 -21 -28 -38 -33 -38 -12 0 -61 43
-175 151 -50 48 -116 106 -146 130 -30 23 -57 45 -60 48 -3 3 -30 25 -61 49
-31 23 -64 50 -73 61 -16 17 -15 18 33 13 59 -5 170 20 226 51 26 15 46 38 63
71 l25 49 27 -32 c25 -31 29 -33 69 -26 23 4 45 13 48 21 3 9 20 14 44 14 47
0 329 68 599 145 61 18 60 18 60 -8z m1665 -439 c50 -51 136 -133 192 -181
l100 -88 7 -73 c12 -132 -17 -246 -89 -353 -33 -48 -173 -205 -194 -217 -9 -5
-18 -13 -21 -17 -13 -19 -187 -120 -266 -154 -144 -61 -173 -92 -78 -81 69 8
175 56 291 132 112 72 150 106 248 223 128 153 175 266 175 418 l0 93 103 -52
c56 -28 125 -70 152 -93 57 -48 207 -162 247 -187 14 -10 29 -26 33 -37 3 -10
31 -40 61 -65 71 -58 254 -227 410 -380 68 -65 133 -125 146 -134 13 -8 39
-29 59 -46 19 -17 59 -51 89 -76 29 -25 74 -65 99 -90 26 -25 68 -62 94 -83
26 -21 47 -42 47 -46 0 -5 -389 -7 -865 -6 l-865 2 -41 29 c-23 16 -58 41 -79
55 -22 14 -54 37 -72 50 -18 14 -58 36 -88 48 -30 13 -69 36 -86 51 -17 15
-66 45 -109 66 -43 21 -99 57 -124 80 -25 22 -70 59 -99 82 l-54 42 44 -6 c64
-9 184 12 254 45 93 43 199 124 307 236 185 189 230 269 225 404 -2 60 -6 76
-18 76 -11 0 -17 -18 -22 -75 -3 -41 -11 -89 -16 -107 -19 -59 -85 -145 -207
-269 -178 -180 -246 -220 -418 -244 -89 -12 -157 -8 -212 12 -131 49 -223 207
-209 358 11 114 66 270 124 350 61 86 156 197 189 223 148 114 321 191 410
182 28 -3 51 -20 126 -97z m-1460 77 c54 -14 79 -23 125 -44 8 -4 35 -48 59
-97 72 -145 69 -226 -16 -414 -33 -73 -102 -188 -133 -221 -8 -9 -27 -32 -42
-52 -41 -52 -190 -163 -272 -202 -171 -80 -328 -95 -433 -42 -88 45 -120 80
-142 155 -60 203 -49 331 42 507 50 97 214 263 319 323 63 36 174 80 233 92
67 13 198 11 260 -5z m3679 -20 c52 -25 133 -102 155 -149 31 -64 37 -155 16
-251 -51 -228 -143 -361 -390 -558 -44 -35 -138 -76 -230 -99 -116 -29 -206
-21 -301 27 -135 69 -170 143 -161 343 3 70 10 144 16 164 10 32 18 39 64 54
79 25 283 130 356 182 36 26 117 99 181 163 63 64 129 121 145 127 44 15 112
14 149 -3z m-3234 -320 c53 -55 108 -117 123 -137 l27 -37 -20 -58 c-29 -82
-29 -289 0 -366 37 -98 112 -176 260 -271 33 -21 89 -66 124 -100 65 -63 196
-144 250 -156 l31 -6 0 -71 c0 -66 2 -73 28 -93 15 -12 27 -24 27 -28 0 -4
-266 -6 -590 -6 l-591 2 -48 38 c-26 22 -75 61 -107 87 -32 27 -104 76 -159
110 -55 33 -118 76 -141 94 -23 18 -44 33 -48 33 -3 0 -25 12 -48 27 l-42 28
60 6 c99 9 220 63 334 147 143 106 196 163 313 335 78 117 117 227 125 352 4
70 1 89 -22 146 -31 79 -33 94 -4 54 12 -16 65 -75 118 -130z m3474 57 c15
-55 16 -73 6 -135 -19 -111 -45 -186 -101 -285 -72 -130 -162 -230 -304 -336
-89 -67 -81 -63 -177 -91 -100 -30 -245 -34 -326 -10 -82 25 -68 32 20 11 77
-19 82 -19 156 -2 99 23 211 70 287 120 67 45 250 225 260 256 3 11 11 20 16
20 14 0 126 237 138 291 13 57 14 164 1 208 -5 19 -6 30 -1 25 4 -5 16 -38 25
-72z m-3620 -102 c0 -77 -5 -109 -27 -170 -15 -41 -38 -90 -50 -110 -12 -19
-29 -48 -37 -64 -8 -16 -55 -73 -105 -127 -49 -53 -102 -110 -116 -126 -38
-42 -186 -146 -252 -177 -49 -23 -165 -56 -202 -58 -5 0 -39 11 -75 25 l-65
26 55 1 c198 2 371 87 573 283 66 64 92 96 157 197 8 14 29 57 45 95 16 39 33
73 38 76 19 13 47 152 41 208 -5 49 -4 53 8 36 9 -13 13 -52 12 -115z m3739
71 c23 -21 97 -89 165 -151 67 -62 122 -116 122 -119 0 -3 55 -53 121 -111
106 -91 229 -231 229 -258 0 -5 -9 -19 -20 -32 -11 -13 -51 -66 -88 -117 -37
-52 -98 -134 -137 -184 -38 -50 -88 -117 -110 -149 -22 -32 -62 -87 -90 -124
-27 -36 -58 -77 -68 -91 l-18 -25 -214 0 c-124 0 -223 4 -237 10 -13 6 -61 40
-108 75 -164 126 -296 213 -405 268 -39 20 -82 48 -95 62 l-23 25 107 0 c97 0
115 3 184 31 42 16 81 34 87 38 5 5 37 23 70 41 51 28 156 109 218 167 21 21
137 188 137 199 0 4 6 15 13 23 46 55 107 276 107 389 0 39 3 72 6 72 3 0 25
-17 47 -39z m-1598 -231 c83 1 161 3 175 5 14 3 43 7 66 11 l41 6 -13 -63 c-8
-35 -14 -81 -14 -101 0 -34 -2 -38 -35 -44 -67 -12 -143 18 -286 114 -41 27
-89 57 -106 66 -40 20 -43 30 -5 15 16 -6 90 -10 177 -9z"/>
<path d="M3282 7314 c-52 -27 -82 -79 -82 -142 0 -65 19 -104 67 -137 102 -68
232 19 220 148 -10 107 -117 175 -205 131z m156 -180 c4 -41 -25 -55 -50 -24
-23 28 -7 63 25 58 16 -2 23 -11 25 -34z"/>
<path d="M2445 7470 c-4 -6 5 -10 20 -10 15 0 24 4 20 10 -3 6 -12 10 -20 10
-8 0 -17 -4 -20 -10z"/>
<path d="M6600 6840 c-60 -31 -75 -86 -39 -150 26 -45 65 -70 114 -70 55 0 91
24 119 80 23 47 24 51 8 57 -9 4 -30 22 -47 40 -18 20 -49 38 -76 47 -41 12
-50 11 -79 -4z m158 -76 c12 -8 22 -24 22 -34 0 -22 -37 -60 -57 -60 -19 0
-35 48 -28 82 7 32 29 36 63 12z"/>
<path d="M4722 6849 c-66 -44 -92 -147 -53 -219 57 -109 207 -107 260 4 36 73
23 143 -38 200 -42 40 -121 47 -169 15z m174 -165 c12 -46 -35 -73 -56 -33 -9
16 -8 26 4 44 19 29 43 23 52 -11z"/>
<path d="M854 4921 c-56 -25 -188 -153 -240 -232 -48 -72 -55 -99 -25 -99 24
0 75 41 181 145 47 46 102 99 123 118 41 38 47 61 19 76 -13 7 -30 4 -58 -8z"/>
<path d="M9506 4925 c-3 -9 0 -15 9 -15 8 0 15 7 15 15 0 8 -4 15 -9 15 -5 0
-11 -7 -15 -15z"/>
<path d="M5888 3693 c7 -3 16 -2 19 1 4 3 -2 6 -13 5 -11 0 -14 -3 -6 -6z"/>
<path d="M1665 3758 c-16 -6 -54 -26 -83 -45 -29 -18 -56 -33 -60 -33 -25 0
-188 -162 -219 -218 -35 -61 -18 -68 63 -26 38 19 76 42 84 49 8 7 38 24 67
39 73 36 121 80 121 111 0 33 16 51 57 65 37 12 51 36 34 56 -13 16 -23 16
-64 2z"/>
<path d="M1820 2983 c11 -22 32 -51 46 -64 24 -22 23 -20 -8 35 -37 67 -71 92
-38 29z"/>
<path d="M8485 3250 c-3 -6 -18 -8 -33 -5 l-27 6 25 -15 c14 -8 61 -24 105
-37 44 -12 103 -37 130 -54 54 -34 185 -156 185 -173 0 -5 6 -15 14 -21 26
-22 51 -118 55 -208 1 -30 17 -29 37 2 15 23 15 35 5 96 -14 85 -29 116 -90
188 -100 119 -169 167 -297 206 -89 28 -100 29 -109 15z"/>
<path d="M4464 1904 c-82 -56 -222 -196 -259 -258 -26 -44 -26 -48 -11 -71 9
-14 21 -25 26 -25 10 0 192 159 198 173 2 4 32 26 65 49 85 56 107 78 107 104
0 26 -34 54 -66 54 -12 0 -39 -12 -60 -26z"/>
<path d="M2987 1902 c-96 -54 -216 -166 -249 -234 -32 -62 -35 -93 -12 -102
24 -9 65 17 140 92 38 38 87 80 109 94 99 64 154 139 125 173 -19 22 -38 18
-113 -23z"/>
<path d="M6643 1902 c-28 -15 -68 -41 -90 -59 -21 -18 -61 -50 -90 -72 -82
-64 -135 -186 -89 -204 15 -6 116 58 116 72 0 5 37 38 83 74 111 87 120 96
150 140 29 43 26 77 -7 77 -11 -1 -44 -13 -73 -28z"/>
<path d="M10080 80 l0 -80 80 0 80 0 0 80 0 80 -80 0 -80 0 0 -80z"/>
</g>
</svg>
